<svg width="23" height="23" viewBox="0 0 23 23" fill="none" xmlns="http://www.w3.org/2000/svg">
<path d="M14.3646 22.6979H9.67708V15.1458H8.6875C8.08333 15.1458 7.59375 14.6562 7.59375 14.0521V12.0729C7.59375 11.4688 8.08333 10.9792 8.6875 10.9792H9.67708V8.375C9.67708 6.21875 11.4271 4.46875 13.5833 4.46875H16.3958C17 4.46875 17.4896 4.95833 17.4896 5.5625V8.0625C17.4896 8.66667 17 9.15625 16.3958 9.15625H14.3646V10.9792H16.3229C16.4844 10.9783 16.6441 11.0135 16.7904 11.082C16.9366 11.1506 17.0658 11.2508 17.1685 11.3755C17.2712 11.5001 17.3449 11.6461 17.3842 11.8027C17.4236 11.9594 17.4275 12.1229 17.3958 12.2812L17 14.2604C16.8958 14.7708 16.4479 15.1354 15.9271 15.1354H14.3646V22.6979ZM11.2396 21.1354H12.8021V13.5833H15.5521L15.7604 12.5417H12.8125V8.6875C12.8125 8.08333 13.3021 7.59375 13.9062 7.59375H15.9375V6.03125H13.5833C12.2917 6.03125 11.2396 7.08333 11.2396 8.375V12.5417H9.15625V13.5833H11.2396V21.1354Z" fill="#576067"/>
<path d="M14.625 22.6978H8.37504C2.71879 22.6978 0.302124 20.2812 0.302124 14.6249V8.37492C0.302124 2.71867 2.71879 0.302002 8.37504 0.302002H14.625C20.2813 0.302002 22.698 2.71867 22.698 8.37492V14.6249C22.698 20.2812 20.2813 22.6978 14.625 22.6978ZM8.37504 1.8645C3.57296 1.8645 1.86462 3.57284 1.86462 8.37492V14.6249C1.86462 19.427 3.57296 21.1353 8.37504 21.1353H14.625C19.4271 21.1353 21.1355 19.427 21.1355 14.6249V8.37492C21.1355 3.57284 19.4271 1.8645 14.625 1.8645H8.37504Z" fill="#576067"/>
</svg>
